<svg width="53" height="53" viewBox="0 0 53 53" fill="none" xmlns="http://www.w3.org/2000/svg">
<g id="fi_3381355" clip-path="url(#clip0_1_551)">
<g id="Group">
<path id="Vector" d="M39.1342 30.0289H37.3935V23.3912C37.3935 20.7693 35.2746 18.6025 32.6048 18.6025H19.546C16.9294 18.6025 14.7573 20.7162 14.7573 23.3912V30.0289H13.0167C12.175 30.0289 11.4927 30.7113 11.4927 31.5529C11.4927 32.3946 12.175 33.0769 13.0167 33.0769H14.7573V47.8765C14.7573 50.5 16.8775 52.6651 19.546 52.6651H32.6048C35.2207 52.6651 37.3935 50.5517 37.3935 47.8765V33.0769H39.1342C39.9759 33.0769 40.6582 32.3946 40.6582 31.5529C40.6582 30.7113 39.9759 30.0289 39.1342 30.0289ZM34.3456 47.8765C34.3456 48.8376 33.5675 49.6172 32.6048 49.6172H19.546C18.5869 49.6172 17.8053 48.8412 17.8053 47.8765V44.5034H34.3456V47.8765ZM34.3456 41.4554H17.8053V29.8122H34.3456V41.4554ZM34.3456 26.7643H17.8053V23.3912C17.8053 22.4301 18.5834 21.6505 19.546 21.6505H19.6543V21.7588C19.6543 22.6005 20.3366 23.2828 21.1783 23.2828C22.0199 23.2828 22.7023 22.6005 22.7023 21.7588V21.6505H29.4484V21.7588C29.4484 22.6005 30.1308 23.2828 30.9724 23.2828C31.814 23.2828 32.4964 22.6005 32.4964 21.7588V21.6505H32.6047C33.5638 21.6505 34.3455 22.4265 34.3455 23.3912V26.7643H34.3456Z" fill="#FF5757"/>
<path id="Vector_2" d="M23.8892 6.51274L24.5523 5.84961V10.3322C24.5523 11.1739 25.2347 11.8562 26.0763 11.8562C26.9179 11.8562 27.6003 11.1739 27.6003 10.3322V5.84961L28.2634 6.51274C28.8585 7.10791 29.8235 7.10791 30.4186 6.51274C31.0138 5.91758 31.0138 4.9527 30.4186 4.35753L27.1539 1.09286C26.5588 0.497693 25.5938 0.497693 24.9986 1.09286L21.734 4.35753C21.1388 4.9527 21.1388 5.91758 21.734 6.51274C22.329 7.10791 23.294 7.10791 23.8892 6.51274Z" fill="black"/>
<path id="Vector_3" d="M3.2232 23.4995C2.38156 23.4995 1.69922 24.1818 1.69922 25.0235V28.2882C1.69922 29.1298 2.38156 29.8121 3.2232 29.8121C4.06484 29.8121 4.74718 29.1298 4.74718 28.2882V25.0235C4.74718 24.1817 4.06484 23.4995 3.2232 23.4995Z" fill="black"/>
<path id="Vector_4" d="M3.2232 34.9258C2.38156 34.9258 1.69922 35.6081 1.69922 36.4498V39.7144C1.69922 40.5561 2.38156 41.2384 3.2232 41.2384C4.06484 41.2384 4.74718 40.5561 4.74718 39.7144V36.4498C4.74718 35.6081 4.06484 34.9258 3.2232 34.9258Z" fill="black"/>
<path id="Vector_5" d="M3.2232 46.3521C2.38156 46.3521 1.69922 47.0344 1.69922 47.876V51.1407C1.69922 51.9823 2.38156 52.6647 3.2232 52.6647C4.06484 52.6647 4.74718 51.9823 4.74718 51.1407V47.876C4.74718 47.0344 4.06484 46.3521 3.2232 46.3521Z" fill="black"/>
<path id="Vector_6" d="M3.2232 12.0732C2.38156 12.0732 1.69922 12.7556 1.69922 13.5972V16.8619C1.69922 17.7035 2.38156 18.3859 3.2232 18.3859C4.06484 18.3859 4.74718 17.7035 4.74718 16.8619V13.5972C4.74718 12.7556 4.06484 12.0732 3.2232 12.0732Z" fill="black"/>
<path id="Vector_7" d="M3.2232 0.646484C2.38156 0.646484 1.69922 1.32882 1.69922 2.17047V5.43514C1.69922 6.27678 2.38156 6.95912 3.2232 6.95912C4.06484 6.95912 4.74718 6.27678 4.74718 5.43514V2.17047C4.74718 1.32882 4.06484 0.646484 3.2232 0.646484Z" fill="black"/>
<path id="Vector_8" d="M48.9294 0.646484C48.0877 0.646484 47.4054 1.32882 47.4054 2.17047V51.1411C47.4054 51.9827 48.0877 52.665 48.9294 52.665C49.771 52.665 50.4534 51.9827 50.4534 51.1411V2.17047C50.4534 1.32882 49.7711 0.646484 48.9294 0.646484Z" fill="#FF5757"/>
</g>
</g>
<defs>
<clipPath id="clip0_1_551">
<rect width="52.0186" height="52.0186" fill="white" transform="translate(0.0673828 0.646484)"/>
</clipPath>
</defs>
</svg>
