<svg width="475" height="50" viewBox="0 0 475 50" fill="none" xmlns="http://www.w3.org/2000/svg">
<path d="M463.814 49.6093C463.471 50.2754 -3.73131 49.6093 2.16339 49.6093C4.85036 49.6093 -1.91417 46.9075 0.714621 46.0367C15.9251 40.9662 32.5621 40.8266 49.1243 39.8013C58.7863 39.2115 68.717 38.2644 77.4067 35.1923C86.2127 32.0942 91.7002 26.7166 97.9522 21.7503C117.26 6.34903 147.982 -1.67817 177.733 1.446C210.952 4.94046 237.14 21.942 270.417 25.0662C290.408 26.9474 309.317 21.7503 328.851 19.9194C344.937 18.4215 358.336 20.5204 372.723 25.3081C383.264 28.8156 393.003 31.7741 404.914 32.323C414.064 32.7584 423.249 32.0532 432.416 31.99C447.091 31.9007 461.576 36.171 472.878 42.8529C474.365 43.7387 479.069 49.6093 463.814 49.6093Z" fill="#E8DBC9"/>
</svg>
