<svg width="796" height="378" viewBox="0 0 796 378" fill="none" xmlns="http://www.w3.org/2000/svg">
<mask id="mask0_1_368" style="mask-type:luminance" maskUnits="userSpaceOnUse" x="0" y="0" width="796" height="378">
<path d="M775.803 0.0910645H20.2637C9.21798 0.0910645 0.263672 9.04536 0.263672 20.0911V357.402C0.263672 368.448 9.21796 377.402 20.2637 377.402H775.803C786.848 377.402 795.803 368.448 795.803 357.402V20.0911C795.803 9.04537 786.848 0.0910645 775.803 0.0910645Z" fill="white"/>
</mask>
<g mask="url(#mask0_1_368)">
<path d="M-87.1976 148.77C8.00116 148.77 85.175 86.2874 85.175 9.21065C85.175 -67.8661 8.00116 -130.349 -87.1976 -130.349C-182.396 -130.349 -259.57 -67.8661 -259.57 9.21065C-259.57 86.2874 -182.396 148.77 -87.1976 148.77Z" fill="#A7AF35"/>
<path d="M102.954 288.244C174.205 288.244 231.966 225.761 231.966 148.684C231.966 71.6073 174.205 9.12427 102.954 9.12427C31.7021 9.12427 -26.0585 71.6073 -26.0585 148.684C-26.0585 225.761 31.7021 288.244 102.954 288.244Z" fill="#A7AF35"/>
<path d="M160.16 85.0744C155.173 88.6829 144.154 86.084 149.558 83.1357C154.439 80.4721 164.665 81.8146 160.16 85.0744Z" fill="#A7AF35"/>
<path d="M184.081 94.2473C184.081 96.8163 180.753 98.9029 176.643 98.9029C172.534 98.9029 169.205 96.8163 169.205 94.2473C169.205 91.6783 172.534 89.5916 176.643 89.5916C180.753 89.5916 184.081 91.6783 184.081 94.2473Z" fill="#CAD440"/>
<path d="M197.899 97.8102C197.899 99.4343 195.982 100.753 193.617 100.753C191.253 100.753 189.336 99.4343 189.336 97.8102C189.336 96.1862 191.253 94.8672 193.617 94.8672C195.982 94.8672 197.899 96.1862 197.899 97.8102Z" fill="#CAD440"/>
<path d="M186.868 102.712C186.868 104.051 185.284 105.144 183.333 105.144C181.381 105.144 179.797 104.061 179.797 102.712C179.797 101.364 181.381 100.281 183.333 100.281C185.284 100.281 186.868 101.364 186.868 102.712Z" fill="#CAD440"/>
<path d="M295.985 151.804C331.975 134.887 353.267 90.0585 343.541 51.6755C333.815 13.2926 296.754 -4.10963 260.763 12.8066C224.772 29.7229 203.48 74.5518 213.206 112.935C222.933 151.318 259.994 168.72 295.985 151.804Z" fill="#A7AF35"/>
<path d="M467.914 101.168C513.564 75.2943 539.846 3.27861 526.615 -59.684C513.384 -122.647 465.651 -152.713 420.001 -126.84C374.351 -100.967 348.069 -28.9512 361.3 34.0114C374.531 96.974 422.264 127.041 467.914 101.168Z" fill="#A7AF35"/>
<path d="M654.439 127.31H120.521C109.475 127.31 100.521 136.264 100.521 147.31V353.383C100.521 364.428 109.475 373.383 120.521 373.383H654.439C665.485 373.383 674.439 364.428 674.439 353.383V147.31C674.439 136.264 665.485 127.31 654.439 127.31Z" fill="#A7AF35"/>
<g style="mix-blend-mode:multiply" opacity="0.55">
<path d="M775.803 0.0910645H20.2637C9.21798 0.0910645 0.263672 9.04535 0.263672 20.091V353.383C0.263672 364.428 9.21796 373.383 20.2637 373.383H775.803C786.848 373.383 795.803 364.428 795.803 353.383V20.0911C795.803 9.04537 786.848 0.0910645 775.803 0.0910645Z" fill="#A7AF35"/>
</g>
<path d="M681.819 0.0910645C216.055 49.7805 -211.28 193.157 -393.229 260.644C-413.702 268.238 -408.175 296.574 -386.338 296.574H854.558C874.133 296.574 882.62 270.125 868.21 256.876C770.83 167.34 792.272 92.2518 824.495 46.8421C835.97 30.6718 824.64 0.0910645 804.812 0.0910645H681.819Z" fill="#8C7888"/>
<path d="M860.335 8.46648C863.525 5.82396 861.575 0.0910645 857.432 0.0910645C856.528 0.0910645 855.648 0.384251 854.925 0.926625L847.83 6.24719C835.614 15.3888 824.681 25.4568 815.285 36.3485C796.241 58.3994 776.321 87.5948 775.679 123.605C774.991 163.422 792.004 203.052 826.402 241.96C838.775 255.955 829.647 280.103 810.968 280.103H-285.648C-307.92 280.103 -313.234 250.004 -292.187 242.719C-244.106 226.078 -187.81 207.455 -125.09 188.214C69.2449 128.588 344.388 55.6816 670.847 6.63839L682.201 4.76786C685.055 4.29769 684.711 0.0910645 681.819 0.0910645C216.055 49.7805 -211.28 193.157 -393.229 260.644C-413.702 268.238 -408.175 296.574 -386.338 296.574H854.558C874.133 296.574 882.62 270.125 868.21 256.876C733.348 132.877 826.382 36.5887 860.335 8.46648Z" fill="#C7D5D4"/>
<g style="mix-blend-mode:multiply" opacity="0.55">
<path d="M952.494 35.3613C940.558 35.3613 931.359 45.7685 931.451 57.7045C931.631 80.9072 928.01 104.149 920.548 126.262C906.892 166.754 880.592 200.97 848.903 228.106C780.682 286.541 692.56 316.814 608.192 340.088C501.065 369.637 392.187 388.746 280.955 385.528C195.041 383.033 108.679 367.889 28.5818 335.693C15.026 330.245 -0.160156 339.976 -0.160156 354.586V518.243C-0.160156 529.289 8.79415 538.243 19.8398 538.243H952.488C963.534 538.243 972.488 529.289 972.488 518.243V55.3551C972.488 44.3128 963.536 35.3613 952.494 35.3613Z" fill="#A7AF35"/>
</g>
<path d="M820.497 292.405C820.497 361.375 532.655 421.909 326.94 421.909C121.224 421.909 -129.21 366.001 -129.21 297.031C-129.21 228.062 154.443 186.397 360.146 186.397C565.85 186.397 820.497 223.436 820.497 292.405Z" fill="#5E4A3A"/>
<path d="M-45.1925 117.865C-43.5273 95.7976 -12.5602 92.375 -6.11597 113.546L29.2822 229.84C33.1932 242.689 23.5797 255.664 10.1489 255.664H-34.025C-45.6636 255.664 -54.844 245.765 -53.9683 234.159L-45.1925 117.865Z" fill="#5E4A3A"/>
<g style="mix-blend-mode:multiply" opacity="0.46">
<path d="M-65.5422 131.108C-63.877 109.041 -32.9095 105.618 -26.4655 126.79L8.93295 243.089C12.8438 255.938 3.23032 268.913 -10.2004 268.913H-54.3746C-66.0133 268.913 -75.1937 259.013 -74.3179 247.408L-65.5422 131.108Z" fill="#A08A79"/>
</g>
<path d="M820.497 325.428C820.497 394.397 532.655 454.931 326.94 454.931C121.224 454.931 -129.21 399.023 -129.21 330.054C-129.21 261.085 154.443 219.419 360.146 219.419C565.85 219.419 820.497 256.458 820.497 325.428Z" fill="#413226"/>
<path d="M780.298 305.614C795.881 305.614 802.998 290.227 789.583 282.298C715.648 238.601 522.645 215.492 360.159 215.492C200.224 215.492 2.55458 239.399 -84.5783 280.962C-100.053 288.344 -93.7884 305.614 -76.6429 305.614H780.298Z" fill="#A08A79"/>
<path d="M780.298 309.551C795.881 309.551 802.998 294.164 789.583 286.236C715.648 242.538 522.645 219.429 360.159 219.429C200.224 219.429 2.55457 243.336 -84.5783 284.899C-100.053 292.281 -93.7884 309.551 -76.6429 309.551H780.298Z" fill="#83664F"/>
<g style="mix-blend-mode:multiply" opacity="0.46">
<path d="M562.5 197.579C562.493 197.579 562.489 197.584 562.489 197.59C565.402 225.206 559.892 252.998 546.832 278.527C531.336 308.833 506.313 334.917 477.135 356.325C443.469 381.031 405.326 400.815 365.875 417.922C364.147 418.67 364.673 421.262 366.555 421.197C567.648 414.273 820.51 357.036 820.51 292.396C820.51 245.474 702.639 213.327 562.5 197.579Z" fill="#A08A79"/>
</g>
<path d="M396.864 281.322C414.601 281.322 428.98 268.991 428.98 253.781C428.98 238.571 414.601 226.241 396.864 226.241C379.126 226.241 364.747 238.571 364.747 253.781C364.747 268.991 379.126 281.322 396.864 281.322Z" fill="#5E4A3A"/>
<path d="M423.838 259.806C427.747 247.018 418.827 233.933 403.914 230.58C389.001 227.228 373.742 234.877 369.832 247.665C365.922 260.454 374.843 273.539 389.756 276.891C404.669 280.244 419.928 272.595 423.838 259.806Z" fill="#A08A79"/>
<path d="M391.436 257.177C391.443 257.183 391.452 257.184 391.461 257.18C393.397 256.203 395.537 254.191 397.186 252.895C402.528 248.569 408.349 243.774 413.535 239.367C413.566 239.341 413.612 239.341 413.642 239.368C413.681 239.4 413.681 239.46 413.643 239.493C408.509 243.926 402.913 248.93 397.887 253.496C396.804 254.515 395.3 255.741 394.111 256.964C393.401 257.694 392.209 257.84 391.436 257.177Z" fill="#5E4A3A"/>
<path d="M396.864 232.265V236.901" stroke="#5E4A3A" stroke-width="0.5" stroke-miterlimit="10"/>
<path d="M421.958 253.781H416.552" stroke="#5E4A3A" stroke-width="0.5" stroke-miterlimit="10"/>
<path d="M396.864 275.298V270.662" stroke="#5E4A3A" stroke-width="0.5" stroke-miterlimit="10"/>
<path d="M371.773 253.781H377.179" stroke="#5E4A3A" stroke-width="0.5" stroke-miterlimit="10"/>
<path d="M396.864 232.265V236.901" stroke="#5E4A3A" stroke-width="0.5" stroke-miterlimit="10"/>
<path d="M421.958 253.781H416.552" stroke="#5E4A3A" stroke-width="0.5" stroke-miterlimit="10"/>
<path d="M396.864 275.298V270.662" stroke="#5E4A3A" stroke-width="0.5" stroke-miterlimit="10"/>
<path d="M371.773 253.781H377.179" stroke="#5E4A3A" stroke-width="0.5" stroke-miterlimit="10"/>
<path d="M396.864 232.265V236.901" stroke="#5E4A3A" stroke-width="0.5" stroke-miterlimit="10"/>
<path d="M421.958 253.781H416.552" stroke="#5E4A3A" stroke-width="0.5" stroke-miterlimit="10"/>
<path d="M396.864 275.298V270.662" stroke="#5E4A3A" stroke-width="0.5" stroke-miterlimit="10"/>
<path d="M371.773 253.781H377.179" stroke="#5E4A3A" stroke-width="0.5" stroke-miterlimit="10"/>
<path d="M384.321 235.149L387.03 239.165" stroke="#5E4A3A" stroke-width="0.5" stroke-miterlimit="10"/>
<path d="M418.595 243.023L413.912 245.346" stroke="#5E4A3A" stroke-width="0.5" stroke-miterlimit="10"/>
<path d="M409.414 272.414L406.705 268.398" stroke="#5E4A3A" stroke-width="0.5" stroke-miterlimit="10"/>
<path d="M375.137 264.539L379.82 262.217" stroke="#5E4A3A" stroke-width="0.5" stroke-miterlimit="10"/>
<path d="M375.137 243.023L379.82 245.346" stroke="#5E4A3A" stroke-width="0.5" stroke-miterlimit="10"/>
<path d="M409.414 235.149L406.705 239.165" stroke="#5E4A3A" stroke-width="0.5" stroke-miterlimit="10"/>
<path d="M418.595 264.539L413.912 262.217" stroke="#5E4A3A" stroke-width="0.5" stroke-miterlimit="10"/>
<path d="M384.321 272.414L387.03 268.398" stroke="#5E4A3A" stroke-width="0.5" stroke-miterlimit="10"/>
<path d="M349.804 259.441C353.433 246.408 344.054 233.319 328.855 230.207C313.656 227.094 298.393 235.137 294.763 248.171C291.134 261.204 300.513 274.293 315.712 277.405C330.911 280.517 346.175 272.475 349.804 259.441Z" fill="#5E4A3A"/>
<path d="M331.537 273.335C344.11 268.937 350.145 256.632 345.017 245.85C339.888 235.069 325.538 229.893 312.965 234.291C300.392 238.689 294.357 250.994 299.485 261.776C304.614 272.558 318.964 277.733 331.537 273.335Z" fill="#A08A79"/>
<path d="M322.67 258.85C322.664 258.85 322.659 258.846 322.659 258.84C322.725 257.148 321.993 254.831 321.649 253.161C320.416 247.727 319.012 241.757 317.642 236.375C317.63 236.329 317.66 236.283 317.706 236.274C317.748 236.267 317.789 236.292 317.8 236.334C319.231 241.699 320.921 247.634 322.51 253.004C322.882 254.156 323.232 255.671 323.724 256.996C324.007 257.759 323.579 258.677 322.779 258.83L322.671 258.85C322.671 258.85 322.67 258.85 322.67 258.85Z" fill="#5E4A3A"/>
<path d="M322.268 234.834V238.919" stroke="#5E4A3A" stroke-width="0.44" stroke-miterlimit="10"/>
<path d="M344.362 253.781H339.599" stroke="#5E4A3A" stroke-width="0.44" stroke-miterlimit="10"/>
<path d="M322.268 272.729V268.645" stroke="#5E4A3A" stroke-width="0.44" stroke-miterlimit="10"/>
<path d="M300.159 253.781H304.923" stroke="#5E4A3A" stroke-width="0.44" stroke-miterlimit="10"/>
<path d="M322.268 234.834V238.919" stroke="#5E4A3A" stroke-width="0.44" stroke-miterlimit="10"/>
<path d="M344.362 253.781H339.599" stroke="#5E4A3A" stroke-width="0.44" stroke-miterlimit="10"/>
<path d="M322.268 272.729V268.645" stroke="#5E4A3A" stroke-width="0.44" stroke-miterlimit="10"/>
<path d="M300.159 253.781H304.923" stroke="#5E4A3A" stroke-width="0.44" stroke-miterlimit="10"/>
<path d="M322.268 234.834V238.919" stroke="#5E4A3A" stroke-width="0.44" stroke-miterlimit="10"/>
<path d="M344.362 253.781H339.599" stroke="#5E4A3A" stroke-width="0.44" stroke-miterlimit="10"/>
<path d="M322.268 272.729V268.645" stroke="#5E4A3A" stroke-width="0.44" stroke-miterlimit="10"/>
<path d="M300.159 253.781H304.923" stroke="#5E4A3A" stroke-width="0.44" stroke-miterlimit="10"/>
<path d="M311.216 237.373L313.592 240.907" stroke="#5E4A3A" stroke-width="0.44" stroke-miterlimit="10"/>
<path d="M341.404 244.303L337.283 246.35" stroke="#5E4A3A" stroke-width="0.44" stroke-miterlimit="10"/>
<path d="M333.309 270.19L330.933 266.656" stroke="#5E4A3A" stroke-width="0.44" stroke-miterlimit="10"/>
<path d="M303.123 263.26L307.256 261.212" stroke="#5E4A3A" stroke-width="0.44" stroke-miterlimit="10"/>
<path d="M303.123 244.303L307.256 246.35" stroke="#5E4A3A" stroke-width="0.44" stroke-miterlimit="10"/>
<path d="M333.309 237.373L330.933 240.907" stroke="#5E4A3A" stroke-width="0.44" stroke-miterlimit="10"/>
<path d="M341.404 263.26L337.283 261.212" stroke="#5E4A3A" stroke-width="0.44" stroke-miterlimit="10"/>
<path d="M311.216 270.19L313.592 266.656" stroke="#5E4A3A" stroke-width="0.44" stroke-miterlimit="10"/>
<path d="M473.941 267.052C476.386 258.236 470.035 249.389 459.754 247.292C449.473 245.195 439.156 250.642 436.711 259.458C434.265 268.274 440.617 277.121 450.898 279.218C461.179 281.315 471.496 275.868 473.941 267.052Z" fill="#5E4A3A"/>
<path d="M471.77 265.507C473.209 257.727 467.021 250.421 457.948 249.187C448.876 247.953 440.355 253.26 438.917 261.04C437.478 268.82 443.666 276.126 452.739 277.36C461.811 278.593 470.332 273.287 471.77 265.507Z" fill="#A08A79"/>
<path d="M453.51 266.331C453.511 266.331 453.511 266.331 453.512 266.331C454.843 264.372 455.91 261.252 456.955 259.146C458.039 256.749 459.111 254.342 460.139 251.925C460.149 251.9 460.177 251.887 460.203 251.895C460.234 251.904 460.25 251.937 460.238 251.967C458.776 255.476 457.28 259.401 455.899 262.945C455.482 264.129 454.888 265.259 454.675 266.507C454.659 266.6 454.565 266.66 454.475 266.632L453.51 266.334C453.508 266.334 453.509 266.331 453.51 266.331Z" fill="#5E4A3A"/>
<path d="M455.324 250.435V253.201" stroke="#5E4A3A" stroke-width="0.3" stroke-miterlimit="10"/>
<path d="M470.268 263.26H467.043" stroke="#5E4A3A" stroke-width="0.3" stroke-miterlimit="10"/>
<path d="M455.324 276.076V273.31" stroke="#5E4A3A" stroke-width="0.3" stroke-miterlimit="10"/>
<path d="M440.368 263.26H443.593" stroke="#5E4A3A" stroke-width="0.3" stroke-miterlimit="10"/>
<path d="M455.324 250.435V253.201" stroke="#5E4A3A" stroke-width="0.3" stroke-miterlimit="10"/>
<path d="M470.268 263.26H467.043" stroke="#5E4A3A" stroke-width="0.3" stroke-miterlimit="10"/>
<path d="M455.324 276.076V273.31" stroke="#5E4A3A" stroke-width="0.3" stroke-miterlimit="10"/>
<path d="M440.368 263.26H443.593" stroke="#5E4A3A" stroke-width="0.3" stroke-miterlimit="10"/>
<path d="M455.324 250.435V253.201" stroke="#5E4A3A" stroke-width="0.3" stroke-miterlimit="10"/>
<path d="M470.268 263.26H467.043" stroke="#5E4A3A" stroke-width="0.3" stroke-miterlimit="10"/>
<path d="M455.324 276.076V273.31" stroke="#5E4A3A" stroke-width="0.3" stroke-miterlimit="10"/>
<path d="M440.368 263.26H443.593" stroke="#5E4A3A" stroke-width="0.3" stroke-miterlimit="10"/>
<path d="M447.839 252.157L449.457 254.549" stroke="#5E4A3A" stroke-width="0.3" stroke-miterlimit="10"/>
<path d="M468.276 256.843L465.486 258.231" stroke="#5E4A3A" stroke-width="0.3" stroke-miterlimit="10"/>
<path d="M462.8 274.363L461.193 271.971" stroke="#5E4A3A" stroke-width="0.3" stroke-miterlimit="10"/>
<path d="M442.378 269.668L445.167 268.29" stroke="#5E4A3A" stroke-width="0.3" stroke-miterlimit="10"/>
<path d="M442.378 256.843L445.167 258.231" stroke="#5E4A3A" stroke-width="0.3" stroke-miterlimit="10"/>
<path d="M462.8 252.157L461.193 254.549" stroke="#5E4A3A" stroke-width="0.3" stroke-miterlimit="10"/>
<path d="M468.276 269.668L465.486 268.29" stroke="#5E4A3A" stroke-width="0.3" stroke-miterlimit="10"/>
<path d="M447.839 274.363L449.457 271.971" stroke="#5E4A3A" stroke-width="0.3" stroke-miterlimit="10"/>
<path d="M285.574 571.088C215.062 571.088 148.786 547.543 98.9239 504.796C49.0734 462.048 21.6172 405.205 21.6172 344.74C21.6172 284.275 49.0734 227.442 98.9239 184.684C148.774 141.926 215.062 118.392 285.574 118.392C356.085 118.392 422.361 141.936 472.223 184.684C522.074 227.432 549.53 284.275 549.53 344.74C549.53 405.205 522.074 462.038 472.223 504.796C422.373 547.543 356.085 571.088 285.574 571.088ZM285.574 150.864C160.907 150.864 59.4958 237.836 59.4958 344.73C59.4958 451.624 160.919 538.596 285.574 538.596C410.228 538.596 511.651 451.624 511.651 344.73C511.651 237.836 410.228 150.864 285.574 150.864Z" fill="#353535"/>
<path d="M248.824 376.237C248.826 376.237 248.827 376.234 248.826 376.233L102.825 211.693C96.2361 204.271 97.9119 193.671 106.567 188.031C113.775 183.336 123.543 183.552 130.419 188.031L322.302 313.233C345.351 328.273 349.816 356.482 332.277 376.237C312.03 399.8 269.06 399.673 248.822 376.241C248.82 376.24 248.821 376.237 248.824 376.237Z" fill="#353535"/>
<path d="M285.573 565.438C216.829 565.438 152.194 542.484 103.583 500.79C54.9726 459.105 28.2051 403.68 28.2051 344.73C28.2051 285.781 54.9726 230.355 103.583 188.671C152.194 146.986 216.829 124.032 285.573 124.032C354.317 124.032 418.951 146.986 467.562 188.671C516.173 230.355 542.941 285.781 542.941 344.73C542.941 403.68 516.173 459.105 467.562 500.79C418.951 542.475 354.317 565.438 285.573 565.438ZM285.573 130.273C147.672 130.273 35.4824 226.477 35.4824 344.73C35.4824 462.983 147.672 559.188 285.573 559.188C423.474 559.188 535.663 462.983 535.663 344.73C535.663 226.477 423.474 130.273 285.573 130.273Z" fill="#5E4A3A"/>
<path d="M285.573 300.176C285.573 300.179 285.575 300.181 285.578 300.181L524.495 327.997C535.273 329.247 542.826 337.761 541.357 347.004C540.14 354.691 533.046 360.469 524.495 361.463L285.573 389.279C256.877 392.616 230.454 375.381 226.563 350.773C221.455 321.837 251.938 295.872 285.568 300.17C285.571 300.171 285.573 300.173 285.573 300.176Z" fill="#353535"/>
<path d="M357.248 406.203C396.834 372.258 396.834 317.221 357.248 283.276C317.662 249.33 253.481 249.33 213.896 283.276C174.31 317.221 174.31 372.257 213.896 406.203C253.481 440.148 317.662 440.148 357.248 406.203Z" fill="#5E4A3A"/>
<path d="M283.322 431.761C338.132 431.761 382.564 393.66 382.564 346.66C382.564 299.659 338.132 261.558 283.322 261.558C228.512 261.558 184.08 299.659 184.08 346.66C184.08 393.66 228.512 431.761 283.322 431.761Z" fill="#353535"/>
<path d="M326.135 379.525C348.539 360.314 348.539 329.165 326.135 309.953C303.731 290.741 267.408 290.741 245.004 309.953C222.6 329.165 222.6 360.313 245.004 379.525C267.408 398.737 303.732 398.737 326.135 379.525Z" fill="#595959"/>
<path opacity="0.25" d="M302.334 379.075C324.416 371.123 334.799 349.327 325.526 330.391C316.253 311.455 290.835 302.551 268.753 310.503C246.671 318.455 236.287 340.252 245.561 359.188C254.834 378.123 280.252 387.027 302.334 379.075Z" fill="#353535"/>
<path d="M320.329 112.954C320.329 112.957 320.327 112.957 320.329 112.96C320.388 113.038 324.649 118.819 320.329 123.629C315.978 128.481 305.108 135.568 301.194 139.663C297.28 143.767 289.452 144.515 283.357 153.089C277.273 161.672 276.401 162.41 267.264 171.741C258.127 181.062 249.002 194.124 232.909 197.844C221.81 200.417 155.809 263.189 111.493 306.121C98.0474 319.147 76.0416 308.325 78.1969 289.728L82.7641 250.321C83.3791 245.015 86.0892 240.18 90.25 236.83C104.69 225.203 138.587 197.207 145.054 185.531C153.318 170.609 152.882 126.975 168.539 122.123C184.195 117.27 191.587 118.688 198.979 112.939C206.371 107.201 212.903 109.809 218.55 110.557C224.209 111.305 227.87 108.402 233.529 107.408C237.317 106.738 241.484 108.805 244.64 107.841C246.19 107.368 248.497 106.079 251.08 105.459C258.908 103.598 267.54 106.827 269.445 110.183C272.877 116.229 271.217 117.431 265.058 120.654C264.443 120.976 263.991 121.34 263.786 121.749C262.953 123.41 260.536 126.133 258.891 127.892C257.928 128.922 257.148 129.302 257.723 130.589C258.936 133.307 264.334 135.779 266.474 133.712C269.378 130.908 272.847 127.587 275.529 125.105C281.187 119.888 292.494 112.427 299.886 109.445C307.276 106.463 315.102 107.122 320.325 112.945C320.327 112.948 320.329 112.951 320.329 112.954Z" fill="#FF8888"/>
<path d="M312.168 125.391C312.17 125.391 312.171 125.393 312.17 125.394C303.401 132.213 292.636 136.947 283.547 143.433C274.64 149.781 263.804 165.304 253.83 170.412C243.614 175.639 226.672 180.728 216.755 186.397C206.734 192.116 184.351 210.069 177.694 216.723C171.358 223.062 141.789 218.987 133.341 223.338C122.367 228.992 120.452 230.087 115.538 228.565C108.867 226.498 101.696 227.499 96.2923 231.922C94.0401 233.765 91.9922 235.424 90.233 236.841C86.0725 240.19 83.3629 245.025 82.748 250.331L78.1807 289.738C76.0253 308.334 98.0312 319.157 111.477 306.131C155.793 263.199 221.794 200.427 232.893 197.854C248.986 194.124 258.123 181.072 267.248 171.751C276.385 162.43 277.257 161.682 283.341 153.098C289.424 144.515 297.264 143.777 301.178 139.673C305.092 135.568 315.962 128.481 320.312 123.639C321.293 122.546 321.832 121.404 322.078 120.29C322.599 117.932 319.486 117.715 318.013 119.628C316.407 121.712 314.432 123.63 312.167 125.387C312.166 125.388 312.167 125.391 312.168 125.391Z" fill="#C96B6B"/>
<path d="M301.125 121.375C301.125 121.374 301.125 121.375 301.125 121.374C301.122 121.356 300.188 114.416 309.341 112.991C309.484 112.969 309.632 112.949 309.777 112.94C311.082 112.853 317.935 112.761 319.605 120.232C319.754 120.921 319.513 121.64 318.951 122.142C318.55 122.496 318.032 122.952 317.451 123.464C314.373 126.173 309.77 126.066 306.278 123.917C304.707 122.95 302.937 122.022 301.133 121.387C301.128 121.385 301.125 121.38 301.125 121.375Z" fill="#FFB3B3"/>
<path d="M134.484 198.177C134.484 198.178 134.483 198.178 134.484 198.179C134.515 198.204 161.425 219.745 174.62 258.646C176.799 265.069 174.909 272.084 170.286 277.047L94.1197 358.825C81.7409 372.115 59.4844 363.356 59.4844 345.193V255.357C59.4844 248.286 63.1992 241.752 69.2745 238.134C86.364 227.958 121.093 207.147 134.478 198.173C134.481 198.171 134.484 198.173 134.484 198.177Z" fill="white"/>
<path d="M128.451 214.027C122.716 209.999 115.169 210.443 109.19 214.101C95.0226 222.769 79.1879 232.242 69.2794 238.141C63.2038 241.759 59.4844 248.296 59.4844 255.367V349.649C59.4844 367.189 80.4541 376.233 93.2109 364.195L167.373 294.21C172.582 289.294 174.88 281.924 172.576 275.142C163.727 249.093 146.846 226.947 128.451 214.027Z" fill="#2D2219"/>
<path d="M161.515 251.004C161.516 251.005 161.516 251.006 161.515 251.007C158.405 257.08 154.767 262.936 150.554 268.418C141.073 280.78 129.939 292.356 118.185 303.173C104.377 315.89 89.1452 327.859 71.9047 337.092C71.3567 337.385 70.8055 337.677 70.2512 337.965C63.8675 341.286 59.4736 347.686 59.4736 354.882C59.4736 370.439 78.0724 378.46 89.3869 367.783L173.326 288.573C174.846 287.138 175.493 284.996 174.95 282.977C171.879 271.567 167.231 260.783 161.511 251.007C161.51 251.005 161.513 251.003 161.515 251.004Z" fill="#201710"/>
<path d="M493.925 261.568C493.925 261.572 493.925 261.577 493.929 261.575C494.096 261.501 500.464 258.672 503.602 256.38C506.77 254.047 523.551 239.273 526.719 238.889C529.887 238.505 543.891 238.643 545.693 241.753C547.495 244.863 552.144 253.279 548.953 255.996C545.762 258.712 543.041 263.378 544.407 264.933C545.762 266.488 556.195 270.76 558.009 273.487C559.823 276.203 559.823 283.595 558.009 288.261C556.195 292.926 562.084 290.978 567.077 297.592C572.059 304.197 566.629 308.085 569.338 313.528C572.059 318.971 576.593 327.426 564.804 335.635C553.75 343.342 555.03 343.735 550.035 360.825C549.338 363.212 549.202 365.731 549.678 368.172C551.536 377.692 544.125 386.493 534.428 386.285L488.349 385.295C477.919 385.071 469.414 376.869 468.812 366.455L468.732 365.077C468.708 364.662 468.672 364.255 468.618 363.843C468.135 360.174 465.401 340.956 460.087 332.19C454.199 322.475 446.485 312.75 453.74 294.865C460.994 276.981 456.012 279.944 461.901 267.65C464.4 262.441 463.124 253.508 463.89 244.944C464.072 242.9 464.148 240.829 463.674 238.832C462.808 235.181 461.501 231.976 460.443 229.735C459.249 227.205 459.938 224.272 462.245 222.392C464.277 220.748 467.181 219.252 470.957 219.439C479.118 219.833 492.72 227.993 494.075 243.151C495.424 258.254 493.936 261.543 493.925 261.567C493.925 261.568 493.925 261.567 493.925 261.568Z" fill="#FF8888"/>
<path d="M569.338 313.528C568.728 312.304 567.04 311.609 566.086 312.588C557.532 321.364 539.477 344.412 533.296 351.866C531.345 354.218 531.012 358.775 530.69 361.65C530.354 364.64 529.871 367.621 529.216 370.571C527.555 378.051 532.624 386.248 540.284 386.412C546.971 386.555 552.081 380.485 550.8 373.921L549.678 368.172C549.202 365.731 549.338 363.212 550.035 360.825C555.03 343.735 553.749 343.342 564.804 335.635C576.592 327.416 572.058 318.971 569.338 313.528Z" fill="#C96B6B"/>
<path d="M558.015 288.246C558.013 288.247 558.011 288.246 558.012 288.244C558.615 286.684 559.018 284.821 559.218 282.93C559.368 281.519 557.721 281.21 557.151 282.51C553.562 290.708 550.043 298.034 545.991 305.388C544.694 307.74 548 309.984 550.364 308.34C556.686 303.963 561.32 300.747 564.267 298.73C565.56 297.845 565.838 296.013 564.638 295.004C560.398 291.437 556.502 292.151 558.018 288.249C558.018 288.247 558.016 288.245 558.015 288.246Z" fill="#C96B6B"/>
<path d="M462.522 225.69C462.522 225.694 462.523 225.699 462.526 225.696C462.674 225.574 466.936 222.124 473.664 223.783C474.756 224.052 475.683 224.77 476.148 225.794C476.918 227.486 477.805 230.414 476.798 233.626C476.196 235.548 475.699 236.52 473.689 236.382C470.268 236.148 464.287 235.136 463.442 231.813C462.925 229.778 462.518 227.575 462.522 225.69Z" fill="#FFB3B3"/>
<path d="M493.93 261.577C493.93 261.577 488.822 263.398 485.022 269.087" stroke="#C96B6B" stroke-linecap="round" stroke-linejoin="round"/>
<path d="M508.728 354.701C508.728 354.705 508.733 354.707 508.735 354.704C651.265 207.322 793.775 59.9597 936.305 -87.4225L1144.02 -302.212C1147.63 -305.942 1149.65 -310.927 1149.65 -316.116V-544.937C1149.65 -562.917 1127.77 -571.765 1115.27 -558.84L235.268 351.121C222.993 363.814 231.987 385.025 249.644 385.025H473.216C477.164 385.025 480.943 383.422 483.688 380.584L508.721 354.698C508.724 354.696 508.728 354.698 508.728 354.701Z" fill="url(#paint0_linear_1_368)"/>
<path d="M1144.04 -37.4748C1147.64 -41.2044 1149.66 -46.1898 1149.66 -51.3782V-157.093C1149.66 -175.073 1127.78 -183.922 1115.28 -170.997L235.282 738.984C223.008 751.677 232.002 772.888 249.659 772.888H351.876C357.296 772.888 362.485 770.688 366.253 766.791L1144.04 -37.4748Z" fill="url(#paint1_linear_1_368)"/>
</g>
<defs>
<linearGradient id="paint0_linear_1_368" x1="639.18" y1="73.6606" x2="1394.27" y2="-644.538" gradientUnits="userSpaceOnUse">
<stop stop-color="#F4F4F4" stop-opacity="0"/>
<stop offset="1" stop-color="#FAFAFA"/>
</linearGradient>
<linearGradient id="paint1_linear_1_368" x1="877.572" y1="156.435" x2="1478.78" y2="-424.98" gradientUnits="userSpaceOnUse">
<stop stop-color="#F4F4F4" stop-opacity="0"/>
<stop offset="1" stop-color="#FAFAFA"/>
</linearGradient>
</defs>
</svg>
