<svg width="78" height="53" viewBox="0 0 78 53" fill="none" xmlns="http://www.w3.org/2000/svg">
<g id="Group">
<path id="Vector" d="M75.1979 11.7315H67.7645V17.5734L66.8429 18.9694L62.673 7.80145C61.0564 3.46174 56.8563 0.533203 52.2482 0.533203H26.3523C21.7291 0.533203 17.5441 3.44657 15.9275 7.80145L11.7576 18.9694L10.8359 17.5734V11.7315H3.40259C2.04283 11.7315 0.924805 12.8391 0.924805 14.22V16.7085C0.924805 18.0741 2.02772 19.197 3.40259 19.197H8.93228L10.005 20.8206C7.60274 21.6855 5.88037 23.9615 5.88037 26.6625V39.0898C5.88037 42.5191 8.66033 45.3111 12.0748 45.3111H13.3137V49.0438C13.3137 51.1074 14.9757 52.7766 17.0304 52.7766H24.4638C26.5185 52.7766 28.1804 51.1074 28.1804 49.0438V45.3111H50.4654V49.0438C50.4654 51.1074 52.1273 52.7766 54.1821 52.7766H61.6154C63.6702 52.7766 65.3321 51.1074 65.3321 49.0438V45.3111H66.571C69.9855 45.3111 72.7654 42.5191 72.7654 39.0898V26.6473C72.7654 23.9464 71.028 21.6703 68.6408 20.8054L69.7135 19.1818H75.2432C76.603 19.1818 77.721 18.0741 77.721 16.6933V14.2048C77.6757 12.8391 76.5728 11.7315 75.1979 11.7315ZM8.35816 16.7085H3.40259V14.22H8.35816V16.7085ZM18.2391 8.66635C19.4931 5.2826 22.7565 3.0217 26.3523 3.0217H52.2331C55.8289 3.0217 59.0923 5.29777 60.3463 8.66635L64.7429 20.426H13.8576L18.2391 8.66635ZM25.6875 49.0286C25.6875 49.7115 25.1285 50.2729 24.4486 50.2729H17.0153C16.3354 50.2729 15.7764 49.7115 15.7764 49.0286V45.2959H25.6724V49.0286H25.6875ZM62.8241 49.0286C62.8241 49.7115 62.2651 50.2729 61.5852 50.2729H54.1518C53.472 50.2729 52.9129 49.7115 52.9129 49.0286V45.2959H62.809V49.0286H62.8241ZM70.2423 26.6473V39.0746C70.2423 41.1383 68.5804 42.8074 66.5257 42.8074H12.0597C10.005 42.8074 8.34305 41.1383 8.34305 39.0746V26.6473C8.34305 24.5837 10.005 22.9145 12.0597 22.9145H66.5257C68.5804 22.9145 70.2423 24.5837 70.2423 26.6473ZM70.2423 16.7085V14.22H75.1979V16.7085H70.2423Z" fill="#FF5757"/>
<path id="Vector_2" d="M19.4936 26.647C16.0791 26.647 13.2991 29.4389 13.2991 32.8682C13.2991 36.2975 16.0791 39.0895 19.4936 39.0895C22.9081 39.0895 25.6881 36.2975 25.6881 32.8682C25.6881 29.4389 22.9081 26.647 19.4936 26.647ZM19.4936 36.5858C17.4388 36.5858 15.7769 34.9167 15.7769 32.8531C15.7769 30.7894 17.4388 29.1203 19.4936 29.1203C21.5483 29.1203 23.2103 30.7894 23.2103 32.8531C23.2103 34.9167 21.5483 36.5858 19.4936 36.5858Z" fill="black"/>
<path id="Vector_3" d="M59.1069 26.647C55.6924 26.647 52.9124 29.4389 52.9124 32.8682C52.9124 36.2975 55.6924 39.0895 59.1069 39.0895C62.5214 39.0895 65.3013 36.2975 65.3013 32.8682C65.3013 29.4389 62.5214 26.647 59.1069 26.647ZM59.1069 36.5858C57.0521 36.5858 55.3902 34.9167 55.3902 32.8531C55.3902 30.7894 57.0521 29.1203 59.1069 29.1203C61.1616 29.1203 62.8236 30.7894 62.8236 32.8531C62.8236 34.9167 61.1616 36.5858 59.1069 36.5858Z" fill="black"/>
<path id="Vector_4" d="M29.4052 31.6245H49.2123V34.113H29.4052V31.6245Z" fill="black"/>
</g>
</svg>
