<svg width="28" height="29" viewBox="0 0 28 29" fill="none" xmlns="http://www.w3.org/2000/svg">
<g id="Iconly/Sharp/Bold/Profile">
<g id="Vector">
<path fill-rule="evenodd" clip-rule="evenodd" d="M22.6673 22.8709C21.4995 19.1776 18.3614 17.0615 14.0543 17.0615H14.0233C9.70471 17.0373 6.55055 19.1684 5.38039 22.8709L5.24475 23.3008L5.62868 23.5353C7.87934 24.9078 10.6864 25.6032 13.9693 25.6032C14.006 25.6032 14.0428 25.6032 14.0785 25.6032C17.4073 25.6032 20.1362 24.9261 22.419 23.5353L22.803 23.3008L22.6673 22.8709Z" fill="#FF5757"/>
<path fill-rule="evenodd" clip-rule="evenodd" d="M14.0239 14.5002C17.1539 14.5002 19.7011 11.9541 19.7011 8.82411C19.7011 5.69295 17.1539 3.14686 14.0239 3.14686C10.8939 3.14686 8.34778 5.69295 8.34778 8.82411C8.34778 11.9541 10.8939 14.5002 14.0239 14.5002Z" fill="#FF5757"/>
</g>
</g>
</svg>
