<svg width="25" height="27" viewBox="0 0 25 27" fill="none" xmlns="http://www.w3.org/2000/svg">
<path id="Fill 187" fill-rule="evenodd" clip-rule="evenodd" d="M2.70911 11.6597C2.70911 6.96673 6.42859 3.14923 10.9996 3.14923C15.5695 3.14923 19.2889 6.96673 19.2889 11.6597C19.2889 16.3527 15.5695 20.1714 10.9996 20.1714C6.42859 20.1714 2.70911 16.3527 2.70911 11.6597ZM24.4925 24.3069L19.0758 18.7603C20.6729 16.8485 21.6445 14.3708 21.6445 11.6597C21.6445 5.63417 16.8686 0.730789 10.9996 0.730789C5.12948 0.730789 0.353516 5.63417 0.353516 11.6597C0.353516 17.6865 5.12948 22.5899 10.9996 22.5899C13.3811 22.5899 15.5754 21.7724 17.3503 20.4096L22.8294 26.0192L24.4925 24.3069Z" fill="#FF5757"/>
</svg>
